<svg xmlns="http://www.w3.org/2000/svg" viewBox="0 0 1280 640" width="1280" height="640" role="img" aria-label="W1TN3SS — Itasha Corp">
  <defs>
    <pattern id="scan" patternUnits="userSpaceOnUse" width="1280" height="4">
      <rect width="1280" height="2" fill="transparent"/><rect y="2" width="1280" height="2" fill="rgba(0,0,0,0.16)"/>
    </pattern>
    <radialGradient id="vig" cx="50%" cy="48%" r="72%">
      <stop offset="0%" stop-color="transparent"/><stop offset="100%" stop-color="rgba(0,0,0,0.5)"/>
    </radialGradient>
    <linearGradient id="grid" x1="0" y1="0" x2="0" y2="1">
      <stop offset="0%" stop-color="#B4EE3A" stop-opacity="0"/><stop offset="100%" stop-color="#B4EE3A" stop-opacity="0.5"/>
    </linearGradient>
    <filter id="phos"><feGaussianBlur in="SourceGraphic" stdDeviation="0.7" result="b"/><feMerge><feMergeNode in="b"/><feMergeNode in="SourceGraphic"/></feMerge></filter>
    <filter id="soft"><feGaussianBlur stdDeviation="2.4"/></filter>
    <filter id="glow"><feGaussianBlur stdDeviation="2.6" result="b"/><feMerge><feMergeNode in="b"/><feMergeNode in="SourceGraphic"/></feMerge></filter>
    <filter id="sigilGlow" x="-60%" y="-60%" width="220%" height="220%"><feGaussianBlur in="SourceGraphic" stdDeviation="1.2" result="sb"><animate attributeName="stdDeviation" values="0.9;2.4;0.9" dur="3.6s" calcMode="spline" keySplines="0.4 0 0.6 1;0.4 0 0.6 1" repeatCount="indefinite"/></feGaussianBlur><feMerge><feMergeNode in="sb"/><feMergeNode in="SourceGraphic"/></feMerge></filter>
    <clipPath id="sc"><rect x="28" y="22" width="1224" height="592" rx="6"/></clipPath>
    <!-- v5: strict containment slot for the right instrument so no motif can spill -->
    <!-- past the bezel. Coords are LOCAL to the translate(770,220) instrument group: -->
    <!-- local x[-8..478] = absolute x[762..1248] (plate right edge = 1252).          -->
    <clipPath id="motifslot"><rect x="-8" y="8" width="486" height="300" rx="4"/></clipPath>
    <radialGradient id="glass" cx="36%" cy="22%" r="62%"><stop offset="0%" stop-color="#ffffff" stop-opacity="0.06"/><stop offset="55%" stop-color="#ffffff" stop-opacity="0"/></radialGradient>
    <pattern id="phosmask" width="3" height="1" patternUnits="userSpaceOnUse"><rect width="1" height="1" x="0" fill="#ff2a2a"/><rect width="1" height="1" x="1" fill="#2aff2a"/><rect width="1" height="1" x="2" fill="#2a2aff"/></pattern>
    <path id="ringPath" d="M 0 -50 A 50 50 0 1 1 -0.01 -50" fill="none"/>
    <radialGradient id="radarSweep" cx="0" cy="0" r="62"><stop offset="0%" stop-color="#B4EE3A" stop-opacity="0.45"/><stop offset="100%" stop-color="#B4EE3A" stop-opacity="0"/></radialGradient>
    <radialGradient id="sigilBloom" cx="50%" cy="50%" r="50%"><stop offset="0%" stop-color="#d8f7a0" stop-opacity="0.30"/><stop offset="42%" stop-color="#d8f7a0" stop-opacity="0.11"/><stop offset="100%" stop-color="#d8f7a0" stop-opacity="0"/></radialGradient>
  </defs>
  <style>
    text { font-family: 'JetBrains Mono','SF Mono','Fira Code','Cascadia Code',Consolas,monospace; }
    @keyframes sweep { 0% { transform: translateY(0); } 100% { transform: translateY(592px); } }
    @keyframes flicker { 0%,96%,100% { opacity: 1; } 97% { opacity: 0.97; } 98% { opacity: 0.995; } }
    @keyframes bootReveal { 0% { opacity: 0; } 100% { opacity: 0.92; } }
    @keyframes curBlink { 0%,50% { opacity: 1; } 51%,100% { opacity: 0; } }
    @keyframes heartbeat { 0%,100% { transform: scale(1); opacity: 0.55; } 15% { transform: scale(1.3); opacity: 0.95; } 30% { transform: scale(1); opacity: 0.55; } 50% { transform: scale(1.1); opacity: 0.8; } }
    @keyframes edgeGlow { 0% { stroke-dashoffset: 3610; } 100% { stroke-dashoffset: 0; } }
    @keyframes phosphorBloom { 0%,100% { opacity: 0; } 50% { opacity: 0.02; } }
    @keyframes nodeBlink { 0%,100% { opacity: 0.9; } 50% { opacity: 0.35; } }
    @keyframes kanjiPulse { 0%,100% { opacity: 0.1; } 50% { opacity: 0.2; } }
    @keyframes rollBar { 0% { transform: translateY(-70px); } 100% { transform: translateY(540px); } }
    @keyframes dataBlink { 0%,100% { opacity: 0.12; } 50% { opacity: 0.7; } }
    @keyframes titleGlitch { 0%,90%,100% { transform: translate(0,0); } 91% { transform: translate(-2px,1px); } 94% { transform: translate(2px,-1px); } 97% { transform: translate(-1px,0); } }
    @keyframes okPulse { 0%,100% { opacity: 0.5; } 50% { opacity: 1; } }
    @keyframes linePulse { 0%,100% { opacity: 0.8; } 50% { opacity: 1; } }
    @keyframes titleBreathe { 0%,100% { opacity: 1; } 50% { opacity: 0.85; } }
    @keyframes crtBlank { 0%,90% { opacity: 0; } 91.5% { opacity: 1; } 97% { opacity: 1; } 98.6% { opacity: 0; } 100% { opacity: 0; } }
    @keyframes crtLine { 0%,89.5% { opacity: 0; transform: scaleY(1); } 90.4% { opacity: 0.95; transform: scaleY(0.03); } 91.4% { opacity: 0; transform: scaleY(0.01); } 97.4% { opacity: 0; transform: scaleY(0.02); } 98.2% { opacity: 0.95; transform: scaleY(0.08); } 99.2% { opacity: 0; transform: scaleY(1); } 100% { opacity: 0; } }
    @media (prefers-reduced-motion: reduce) { * { animation: none !important; } }
  </style>

  <rect x="0" y="0" width="1280" height="640" rx="14" fill="#0b0f12"/>
  <rect x="2" y="2" width="1276" height="636" rx="13" fill="#1a242b" stroke="#2a3a42" stroke-width="1"/>
  <line x1="24" y1="13" x2="1256" y2="13" stroke="#2a3a42" stroke-width="0.5"/>
  <line x1="24" y1="620" x2="1256" y2="620" stroke="#2a3a42" stroke-width="0.5"/>
  <rect x="28" y="22" width="1224" height="592" rx="6" fill="#070a0c"/>

  <g clip-path="url(#sc)">
    <g stroke="url(#grid)" stroke-width="0.6" opacity="0.5">
      <line x1="640" y1="422" x2="40" y2="614"/><line x1="640" y1="422" x2="220" y2="614"/>
      <line x1="640" y1="422" x2="400" y2="614"/><line x1="640" y1="422" x2="540" y2="614"/>
      <line x1="640" y1="422" x2="640" y2="614"/><line x1="640" y1="422" x2="740" y2="614"/>
      <line x1="640" y1="422" x2="900" y2="614"/><line x1="640" y1="422" x2="1060" y2="614"/>
      <line x1="640" y1="422" x2="1240" y2="614"/>
    </g>
    <g stroke="#B4EE3A" stroke-width="0.5" opacity="0.2">
      <line x1="120" y1="521" x2="1160" y2="521"/><line x1="80" y1="567" x2="1200" y2="567"/><line x1="48" y1="605" x2="1232" y2="605"/>
    </g>
    <!-- ambient "the wired" data nodes -->
    <g fill="#B4EE3A">
      <circle cx="360" cy="561" r="1.6" style="animation: dataBlink 2.6s ease-in-out 0s infinite;"/>
      <circle cx="700" cy="593" r="1.6" style="animation: dataBlink 3.1s ease-in-out 0.8s infinite;"/>
      <circle cx="980" cy="543" r="1.6" style="animation: dataBlink 2.4s ease-in-out 1.4s infinite;"/>
      <circle cx="498" cy="601" r="1.6" fill="#d2f879" style="animation: dataBlink 3.4s ease-in-out 2s infinite;"/>
    </g>
    <!-- CRT roll bar: soft band drifting down the screen -->
    <rect x="28" y="22" width="1224" height="46" fill="#B4EE3A" opacity="0.035" style="animation: rollBar 7s linear infinite;"/>
    <rect x="28" y="22" width="1224" height="3" fill="#B4EE3A" opacity="0.05" style="animation: sweep 9s linear infinite;"/>
    <rect x="28" y="22" width="1224" height="592" fill="#ffffff" opacity="0" style="animation: phosphorBloom 8s ease-in-out infinite;"/>

    <!-- CENTRAL ANIMATED DAEMON-SIGIL (SMIL) — larger for the tall OG card    -->
    <!-- v4: base scale 1.14 + ACCENT_GLOW bloom backdrop; plate-centre x=640,  -->
    <!-- content-band centre y=392.                                            -->
    <g transform="translate(640,392) scale(1.14)" opacity="0.6" filter="url(#sigilGlow)">
      <animateTransform attributeName="transform" type="scale" additive="sum" values="1;1.015;1" dur="5s" repeatCount="indefinite"/>
      <circle r="92" fill="url(#sigilBloom)"/>
      <g stroke="#B4EE3A" stroke-width="0.4" opacity="0.12">
        <line x1="-20" y1="-20" x2="20" y2="-20"/><line x1="-20" y1="-7" x2="20" y2="-7"/>
        <line x1="-20" y1="7" x2="20" y2="7"/><line x1="-20" y1="20" x2="20" y2="20"/>
        <line x1="-20" y1="-20" x2="-20" y2="20"/><line x1="-7" y1="-20" x2="-7" y2="20"/>
        <line x1="7" y1="-20" x2="7" y2="20"/><line x1="20" y1="-20" x2="20" y2="20"/>
      </g>
      <!-- v5: outermost counter-rotating ring (2nd accent) + radar sweep (parity w/ header) -->
      <g fill="none">
        <animateTransform attributeName="transform" type="rotate" from="360" to="0" dur="54s" repeatCount="indefinite"/>
        <circle r="68" stroke="#6f93a6" stroke-width="0.9" opacity="0.7"/>
        <circle r="71" stroke="#6f93a6" stroke-width="0.4" opacity="0.4"/>
        <g stroke="#6f93a6" stroke-width="0.8" opacity="0.6">
          <line x1="0" y1="-68" x2="0" y2="-73"/><line x1="26" y1="-63" x2="28" y2="-67"/>
          <line x1="48" y1="-48" x2="51" y2="-51"/><line x1="63" y1="-26" x2="67" y2="-28"/>
          <line x1="68" y1="0" x2="73" y2="0"/><line x1="63" y1="26" x2="67" y2="28"/>
          <line x1="48" y1="48" x2="51" y2="51"/><line x1="26" y1="63" x2="28" y2="67"/>
          <line x1="0" y1="68" x2="0" y2="73"/><line x1="-26" y1="63" x2="-28" y2="67"/>
          <line x1="-48" y1="48" x2="-51" y2="51"/><line x1="-63" y1="26" x2="-67" y2="28"/>
          <line x1="-68" y1="0" x2="-73" y2="0"/><line x1="-63" y1="-26" x2="-67" y2="-28"/>
          <line x1="-48" y1="-48" x2="-51" y2="-51"/><line x1="-26" y1="-63" x2="-28" y2="-67"/>
        </g>
        <path d="M0 -71 A71 71 0 0 1 35.5 -61.5" stroke="#6f93a6" stroke-width="1.6" opacity="0.85"/>
        <path d="M0 71 A71 71 0 0 1 -35.5 61.5" stroke="#6f93a6" stroke-width="1.6" opacity="0.85"/>
      </g>
      <g>
        <animateTransform attributeName="transform" type="rotate" from="0" to="360" dur="6s" repeatCount="indefinite"/>
        <path d="M0 0 L0 -56 A56 56 0 0 1 19.4 -52.6 Z" fill="#6f93a6" opacity="0.14"/>
        <line x1="0" y1="0" x2="0" y2="-56" stroke="#6f93a6" stroke-width="1.1" opacity="0.7"/>
      </g>
      <g stroke="#B4EE3A" fill="none">
        <animateTransform attributeName="transform" type="rotate" from="0" to="360" dur="48s" repeatCount="indefinite"/>
        <circle r="58" stroke-width="0.8" opacity="0.85"/>
        <circle r="54" stroke-width="0.5" opacity="0.6"/>
        <g stroke-width="0.7" opacity="0.7">
          <line x1="0" y1="-58" x2="0" y2="-54"/><line x1="29" y1="-50.2" x2="27" y2="-46.8"/>
          <line x1="50.2" y1="-29" x2="46.8" y2="-27"/><line x1="58" y1="0" x2="54" y2="0"/>
          <line x1="50.2" y1="29" x2="46.8" y2="27"/><line x1="29" y1="50.2" x2="27" y2="46.8"/>
          <line x1="0" y1="58" x2="0" y2="54"/><line x1="-29" y1="50.2" x2="-27" y2="46.8"/>
          <line x1="-50.2" y1="29" x2="-46.8" y2="27"/><line x1="-58" y1="0" x2="-54" y2="0"/>
          <line x1="-50.2" y1="-29" x2="-46.8" y2="-27"/><line x1="-29" y1="-50.2" x2="-27" y2="-46.8"/>
        </g>
      </g>
      <g>
        <animateTransform attributeName="transform" type="rotate" from="360" to="0" dur="32s" repeatCount="indefinite"/>
        <text font-size="10" fill="#B4EE3A" opacity="0.7" font-family="'Noto Sans JP','Yu Gothic','Hiragino Sans',sans-serif">
          <textPath href="#ringPath" startOffset="6%">証 · W1TN3SS ·</textPath>
        </text>
      </g>
      <g stroke="#B4EE3A" stroke-width="0.7" opacity="0.55">
        <path d="M0 -53 L0 -29 M-2.6 -34 L0 -29 L2.6 -34"/>
        <path d="M50.4 -16.4 L27.8 -9 M25.9 -13.2 L27.8 -9 L23.8 -9.8"/>
        <path d="M31.2 42.8 L17.2 23.6 M18 28.3 L17.2 23.6 L13 24.9"/>
        <path d="M-31.2 42.8 L-17.2 23.6 M-13 24.9 L-17.2 23.6 L-18 28.3"/>
        <path d="M-50.4 -16.4 L-27.8 -9 M-23.8 -9.8 L-27.8 -9 L-25.9 -13.2"/>
      </g>
      <g stroke="#B4EE3A" stroke-width="1.3" fill="none" stroke-linecap="round" stroke-linejoin="miter" transform="scale(1.35)">
        <path d="M-12 -11 L12 -11 M-7 -5 L0 6 L7 -5 M-13 -13 L-13 13 M13 -13 L13 13" pathLength="200" stroke-dasharray="200" stroke-dashoffset="0">
          <animate attributeName="stroke-dashoffset" from="200" to="0" dur="2.4s" begin="0s" fill="freeze" calcMode="spline" keySplines="0.6 0 0.2 1"/>
          <animate attributeName="stroke-width" values="1;1;1.7;1" keyTimes="0;0.85;0.9;1" dur="6s" begin="2.4s" repeatCount="indefinite"/>
        </path>
      </g>
      <g fill="#B4EE3A">
        <circle cx="0" cy="-29" r="1.6"/><circle cx="0" cy="29" r="1.6"/><circle cx="-25" cy="0" r="1.4"/><circle cx="25" cy="0" r="1.4"/>
      </g>
    </g>
  </g>
  <rect x="28" y="22" width="1224" height="592" rx="6" fill="url(#scan)"/>
  <rect x="28" y="22" width="1224" height="592" rx="6" fill="url(#vig)"/>
  <rect x="28" y="22" width="1224" height="592" rx="6" fill="url(#phosmask)" opacity="0.04"/>
  <rect x="28" y="22" width="1224" height="592" rx="6" fill="url(#glass)"/>
  <rect x="28" y="22" width="1224" height="592" rx="6" fill="none" stroke="#B4EE3A" stroke-width="1" opacity="0.07" stroke-dasharray="22,3610" style="animation: edgeGlow 11s linear infinite;"/>
  <rect x="28" y="22" width="1224" height="592" rx="6" fill="none" stroke="#1a242b"/>

  <g stroke="#B4EE3A" stroke-width="1.4" fill="none" opacity="0.55">
    <path d="M56 54 h26 M56 54 v26"/><path d="M1224 54 h-26 M1224 54 v26"/>
    <path d="M56 582 h26 M56 582 v-26"/><path d="M1224 582 h-26 M1224 582 v-26"/>
  </g>

    <!-- v5: kanji tucked symmetrically into the top-right corner bracket (x1224,y54) + ghost -->
    <text x="1218" y="92" text-anchor="end" font-size="40" fill="#B4EE3A" opacity="0.13" font-family="'Noto Sans JP','Yu Gothic','Hiragino Sans',sans-serif" style="animation: kanjiPulse 6s ease-in-out infinite;">証</text>
    <text x="1221" y="89" text-anchor="end" font-size="40" fill="#6f93a6" opacity="0.06" font-family="'Noto Sans JP','Yu Gothic','Hiragino Sans',sans-serif">証</text>
  <g style="animation: flicker 7s infinite;">
    <text x="640" y="74" text-anchor="middle" font-size="13" fill="#5a6b73" letter-spacing="7" filter="url(#phos)" style="font-family: 'Times New Roman','Times','Matisse',serif; font-weight: 700; transform: scaleX(0.82); transform-origin: 640px 74px; animation: titleBreathe 6s ease-in-out infinite;">I T A S H A . C O R P</text>
    <g font-size="72" font-weight="bold" letter-spacing="6" text-anchor="middle">
      <text x="643" y="144" fill="#d2f879" opacity="0.5" filter="url(#soft)" style="animation: titleGlitch 5.5s steps(1) infinite; transform-origin: 640px 144px;">W1TN3SS</text>
      <text x="637" y="144" fill="#B4EE3A" opacity="0.5" filter="url(#soft)" style="animation: titleGlitch 6.3s steps(1) 0.1s infinite; transform-origin: 640px 144px;">W1TN3SS</text>
      <text x="640" y="144" fill="#e9f7ff" filter="url(#glow)" style="animation: titleBreathe 4s ease-in-out infinite;">W1TN3SS</text>
    </g>
    <!-- v5: CRT scanline sweeping down through the wordmark (more title animation) -->
    <rect x="420" y="84" width="440" height="3" fill="#e9f7ff" opacity="0">
      <animate attributeName="y" values="82;152;82" dur="5.5s" repeatCount="indefinite"/>
      <animate attributeName="opacity" values="0;0.22;0;0" keyTimes="0;0.5;0.85;1" dur="5.5s" repeatCount="indefinite"/>
    </rect>
    <!-- v5: title 'something extra' — boot/scan loading-bar underline + status LEDs (parity w/ header) -->
    <g style="animation: flicker 9s infinite;">
      <line x1="544" y1="160" x2="736" y2="160" stroke="#B4EE3A" stroke-width="0.7" opacity="0.22"/>
      <line x1="544" y1="160" x2="624" y2="160" stroke="#6f93a6" stroke-width="2" opacity="0.9" stroke-linecap="round">
        <animate attributeName="x1" values="544;544;664;544" keyTimes="0;0.12;0.9;1" dur="4.5s" repeatCount="indefinite"/>
        <animate attributeName="x2" values="544;624;736;624" keyTimes="0;0.12;0.9;1" dur="4.5s" repeatCount="indefinite"/>
      </line>
      <circle cx="534" cy="160" r="2.6" fill="#6fe8b0"><animate attributeName="opacity" values="0.3;1;0.3" dur="2s" repeatCount="indefinite"/></circle>
      <circle cx="746" cy="160" r="2.6" fill="#B4EE3A"><animate attributeName="opacity" values="1;0.3;1" dur="2.6s" repeatCount="indefinite"/></circle>
    </g>
    <text x="640" y="178" text-anchor="middle" font-size="15" fill="#B4EE3A" letter-spacing="3.2" filter="url(#phos)">sealed crash witness</text>
    <!-- secondary data strip under the subtitle (v4): fills the upper band -->
    <g text-anchor="middle" style="animation: flicker 8s infinite;">
      <line x1="520" y1="192" x2="760" y2="192" stroke="#6f93a6" stroke-width="0.7" opacity="0.3"/>
      <text x="640" y="207" font-size="10.5" fill="#6f93a6" letter-spacing="2.8" opacity="0.6">[ WITNESS-CORE ] · egress: none · SEALED</text>
    </g>

    <!-- content-band lift: boot block + right instrument shift up uniformly so -->
    <!-- the lowest content clears the bottom corner brackets (plan-611). -->
    <g transform="translate(0,-10)">
    <g filter="url(#phos)">
      <text x="64" y="226" font-size="13" fill="#5a6b73">WITNESS-CORE --boot</text>
      <text x="376" y="226" text-anchor="end" font-size="10" fill="#6f93a6" opacity="0.55" letter-spacing="1">SEALED</text>
      <line x1="64" y1="236" x2="376" y2="236" stroke="#5a6b73" stroke-width="0.8" opacity="0.7"/>
      <text x="84" y="262" font-size="13.5" fill="#B4EE3A" xml:space="preserve" style="animation: bootReveal 0.35s ease-out 0.2s both, linePulse 3.6s ease-in-out 0.0s infinite;"><tspan>&gt; arm fault recorder</tspan><tspan x="309" fill="#6fe8b0" style="animation: okPulse 2s ease-in-out 0.6s infinite;">[ OK ]</tspan></text>
      <text x="84" y="290" font-size="13.5" fill="#B4EE3A" xml:space="preserve" style="animation: bootReveal 0.35s ease-out 0.5s both, linePulse 3.6s ease-in-out 0.4s infinite;"><tspan>&gt; capture under seal</tspan><tspan x="309" fill="#6fe8b0" style="animation: okPulse 2s ease-in-out 1.0s infinite;">[ OK ]</tspan></text>
      <text x="84" y="318" font-size="13.5" fill="#B4EE3A" xml:space="preserve" style="animation: bootReveal 0.35s ease-out 0.8s both, linePulse 3.6s ease-in-out 0.8s infinite;"><tspan>&gt; hold local · zero egress</tspan><tspan x="309" fill="#6fe8b0" style="animation: okPulse 2s ease-in-out 1.4s infinite;">[ OK ]</tspan></text>
      <text x="84" y="346" font-size="13.5" fill="#B4EE3A" xml:space="preserve" style="animation: bootReveal 0.35s ease-out 1.1s both, linePulse 3.6s ease-in-out 1.2s infinite;"><tspan>&gt; await user consent</tspan><tspan x="309" fill="#6fe8b0" style="animation: okPulse 2s ease-in-out 1.8s infinite;">[ OK ]</tspan></text>
      <text x="84" y="374" font-size="13.5" fill="#B4EE3A" xml:space="preserve" style="animation: bootReveal 0.35s ease-out 1.4s both, linePulse 3.6s ease-in-out 1.6s infinite;"><tspan>&gt; release on consent only</tspan><tspan x="309" fill="#6fe8b0" style="animation: okPulse 2s ease-in-out 2.2s infinite;">[ OK ]</tspan></text>
      <line x1="64" y1="396" x2="376" y2="396" stroke="#5a6b73" stroke-width="0.8" opacity="0.7"/>
      <text x="64" y="430" font-size="14" fill="#6fe8b0">root@itasha:witness$<tspan dx="6" fill="#B4EE3A" style="animation: curBlink 1.1s step-end infinite;">█</tspan></text>
      <text x="64" y="458" font-size="11" fill="#5a6b73" letter-spacing="2">telemetry-free · opt-in · previewable</text>
      <g font-size="10" letter-spacing="1.2" style="animation: dataBlink 4s ease-in-out infinite;">
        <rect x="64" y="470" width="8" height="8" fill="#6fe8b0" opacity="0.55"/>
        <rect x="77" y="470" width="8" height="8" fill="#B4EE3A" opacity="0.5"/>
        <rect x="90" y="470" width="8" height="8" fill="#6f93a6" opacity="0.45"/>
        <rect x="103" y="470" width="8" height="8" fill="#d2f879" opacity="0.4"/>
        <text x="120" y="478" fill="#5a6b73" opacity="0.7">link nominal · uplink SEALED</text>
      </g>
      <!-- v5: bottom telemetry row (parity w/ header) -->
      <g transform="translate(64, 502)" font-size="9.5" letter-spacing="1" style="animation: dataBlink 5s ease-in-out infinite;">
        <line x1="0" y1="-12" x2="300" y2="-12" stroke="#6f93a6" stroke-width="0.5" opacity="0.24"/>
        <text x="0" y="0" fill="#6f93a6" opacity="0.58">buf</text>
        <rect x="32" y="-7" width="104" height="6" fill="#6f93a6" opacity="0.13"/>
        <rect x="32" y="-7" width="64" height="6" fill="#B4EE3A" opacity="0.5"><animate attributeName="width" values="36;92;54;76;36" dur="3.8s" repeatCount="indefinite"/></rect>
        <text x="150" y="0" fill="#5a6b73" opacity="0.7">io none · SEALED</text>
      </g>
      <!-- v5: left-gap diagnostic cluster (SOCIAL parity with the header) — fills -->
      <!-- the band between the boot text and the sigil; themed per-repo. -->
      <g transform="translate(372, 246)" style="animation: flicker 8s infinite;">
        <line x1="-14" y1="-14" x2="-14" y2="198" stroke="#6f93a6" stroke-width="0.6" opacity="0.22"/>
        <text x="0" y="0" font-size="10" fill="#6f93a6" letter-spacing="2" opacity="0.72">// egress</text>
        <line x1="0" y1="8" x2="136" y2="8" stroke="#6f93a6" stroke-width="0.6" opacity="0.32"/>
        <g font-size="10" letter-spacing="0.3" fill="#B4EE3A" opacity="0.3" style="animation: dataBlink 5s ease-in-out infinite;">
          <text x="0" y="26">DAT :: none</text>
          <text x="0" y="42">SYN WITNESS-CORE</text>
        </g>
        <g transform="translate(0, 132)">
          <line x1="0" y1="2" x2="98" y2="2" stroke="#6f93a6" stroke-width="0.6" opacity="0.3"/>
          <g fill="#B4EE3A" opacity="0.7">
            <rect x="0"  y="-36" width="7" height="36"><animateTransform attributeName="transform" type="scale" values="1 0.35;1 1;1 0.5;1 0.8;1 0.35" dur="2.2s" repeatCount="indefinite"/></rect>
            <rect x="14" y="-36" width="7" height="36"><animateTransform attributeName="transform" type="scale" values="1 0.7;1 0.3;1 0.95;1 0.45;1 0.7" dur="2.6s" repeatCount="indefinite"/></rect>
            <rect x="28" y="-36" width="7" height="36" fill="#6f93a6"><animateTransform attributeName="transform" type="scale" values="1 0.5;1 0.85;1 0.3;1 1;1 0.5" dur="2.0s" repeatCount="indefinite"/></rect>
            <rect x="42" y="-36" width="7" height="36"><animateTransform attributeName="transform" type="scale" values="1 0.9;1 0.4;1 0.7;1 0.3;1 0.9" dur="2.4s" repeatCount="indefinite"/></rect>
            <rect x="56" y="-36" width="7" height="36" fill="#6f93a6"><animateTransform attributeName="transform" type="scale" values="1 0.4;1 0.75;1 1;1 0.55;1 0.4" dur="2.8s" repeatCount="indefinite"/></rect>
            <rect x="70" y="-36" width="7" height="36"><animateTransform attributeName="transform" type="scale" values="1 0.65;1 0.3;1 0.6;1 0.9;1 0.65" dur="2.1s" repeatCount="indefinite"/></rect>
          </g>
        </g>
        <g transform="translate(0, 186)">
          <path id="ssprk" d="M0 0 L16 -7 L30 3 L46 -10 L62 -2 L82 -14 L102 -4 L132 -8" fill="none" stroke="#B4EE3A" stroke-width="1.3" opacity="0.6"/>
          <circle r="2.6" fill="#6fe8b0"><animateMotion dur="3.4s" repeatCount="indefinite" keyPoints="0;1" keyTimes="0;1" calcMode="linear"><mpath href="#ssprk"/></animateMotion></circle>
        </g>
      </g>
    </g>

    <!-- BESPOKE per-repo right instrument (plan-611). v5: generic frame chrome    -->
    <!-- (MOTIF label, CH-01 caption, corner brackets) REMOVED — they interfered    -->
    <!-- with the title + covered parts of some motifs. The motif is clipped to     -->
    <!-- #motifslot so it can never spill past the bezel.                           -->
    <g transform="translate(770, 220)" style="animation: flicker 9s infinite;" opacity="0.94">
      <!-- v5: same canonical 600x310 motif box, scaled SMALLER for the social card -->
      <!-- (0.76 -> 456x236), centred in the #motifslot clip so it can never spill. -->
      <!-- v5: leftover PANEL readout strip below the motif REMOVED for header parity -->
      <!-- (the header has no readout below its motif; each motif owns its own labels). -->
      <g clip-path="url(#motifslot)">
        <g transform="translate(8, 34) scale(0.76)">
                <g filter="url(#phos)">
        <!-- LEFT: recorder scope pane (x 14..300) -->
        <text x="14" y="26" font-size="10" fill="#6f93a6" opacity="0.6" letter-spacing="1.5" font-family="monospace">FAULT TRACE</text>
        <rect x="14" y="34" width="286" height="150" rx="4" fill="#06080a" stroke="#B4EE3A" stroke-width="0.6" opacity="0.85"/>
        <!-- scope graticule: phosphor baseline + faint divisions -->
        <line x1="14" y1="92" x2="300" y2="92" stroke="#B4EE3A" stroke-width="0.5" opacity="0.2"/>
        <g stroke="#B4EE3A" stroke-width="0.32" opacity="0.1">
          <line x1="14" y1="58" x2="300" y2="58"/><line x1="14" y1="126" x2="300" y2="126"/><line x1="14" y1="160" x2="300" y2="160"/>
          <line x1="86" y1="34" x2="86" y2="184"/><line x1="157" y1="34" x2="157" y2="184"/><line x1="229" y1="34" x2="229" y2="184"/>
        </g>
        <!-- the recorded trace: calm baseline · ONE sharp downward fault spike · SEALED flatline -->
        <!-- resting (zero-motion) frame = this latched, sealed trace (canonical brand frame) -->
        <path fill="none" stroke="#B4EE3A" stroke-width="1.8" opacity="0.9" filter="url(#glow)"
          d="M18 92 L70 92 L92 92 L104 90 L116 92 L150 92 L158 92 L162 150 L168 92 L176 92 L210 92 L300 92"/>
        <!-- fault spike emphasised in glitch-lime + a held marker ring at its foot -->
        <path fill="none" stroke="#d2f879" stroke-width="2.2" opacity="0.95" filter="url(#glow)"
          d="M158 92 L162 150 L168 92"/>
        <circle cx="162" cy="150" r="4" fill="none" stroke="#d2f879" stroke-width="1.4" opacity="0.85"/>
        <!-- single capture sweep that latches once, then holds (NOT a repeating live monitor) -->
        <circle r="3.2" cy="92" fill="#eaffd6" filter="url(#glow)">
          <animate attributeName="cx" values="18;162;210;210" keyTimes="0;0.42;0.6;1" dur="5.4s" repeatCount="indefinite"/>
          <animate attributeName="cy" values="92;150;92;92" keyTimes="0;0.42;0.6;1" dur="5.4s" repeatCount="indefinite"/>
          <animate attributeName="opacity" values="0.95;1;0.2;0" keyTimes="0;0.42;0.62;1" dur="5.4s" repeatCount="indefinite"/>
        </circle>
        <!-- SEALED latch label rising once the flatline holds -->
        <text x="296" y="50" text-anchor="end" font-size="10" font-family="monospace" fill="#6fe8b0" opacity="0" letter-spacing="2">SEALED ✓<animate attributeName="opacity" values="0;0;0.9;0.9" keyTimes="0;0.55;0.7;1" dur="5.4s" repeatCount="indefinite"/></text>
        <!-- fault descriptor line beneath the scope, cross-fading: captured -> held -> released-on-consent -->
        <g transform="translate(14,206)" font-family="monospace" font-size="11">
          <text x="0" y="0" fill="#d2f879" opacity="0.88">▌ fault captured<animate attributeName="opacity" values="0.88;0;0;0.88" keyTimes="0;0.34;0.67;1" dur="6.6s" repeatCount="indefinite"/></text>
          <text x="0" y="0" fill="#6f93a6" opacity="0">▌ held under seal<animate attributeName="opacity" values="0;0.85;0;0" keyTimes="0;0.34;0.67;1" dur="6.6s" repeatCount="indefinite"/></text>
          <text x="0" y="0" fill="#6fe8b0" opacity="0">▌ released on consent ✓<animate attributeName="opacity" values="0;0;0.85;0" keyTimes="0;0.34;0.67;1" dur="6.6s" repeatCount="indefinite"/></text>
          <text x="0" y="22" fill="#6f93a6" opacity="0.5">telemetry-free · opt-in only · 証</text>
        </g>
        <!-- recorder stamp glyph (lower-left): a stylus latch + record bead -->
        <g transform="translate(56,262)">
          <text x="0" y="-44" font-size="9" fill="#6f93a6" opacity="0.55" letter-spacing="1.5" font-family="monospace" text-anchor="middle">REC</text>
          <rect x="-15" y="-34" width="30" height="46" rx="5" fill="#B4EE3A" fill-opacity="0.1" stroke="#B4EE3A" stroke-width="2" opacity="0.9"/>
          <g stroke="#B4EE3A" stroke-width="1" opacity="0.4"><line x1="-9" y1="-24" x2="9" y2="-24"/><line x1="-9" y1="-14" x2="9" y2="-14"/><line x1="-9" y1="-4" x2="9" y2="-4"/></g>
          <line x1="0" y1="14" x2="0" y2="34" stroke="#B4EE3A" stroke-width="2" opacity="0.8"/>
          <line x1="-12" y1="34" x2="12" y2="34" stroke="#B4EE3A" stroke-width="2" opacity="0.8"/>
          <circle cx="18" cy="-30" r="4" fill="#d2f879" filter="url(#glow)"><animate attributeName="opacity" values="1;0.3;1" dur="1.2s" repeatCount="indefinite"/></circle>
        </g>
      </g>
      <!-- RIGHT: round warded seal holding the fault behind a closed consent gate (x 300..600) -->
      <g transform="translate(456,150)" filter="url(#phos)">
        <circle r="120" fill="none" stroke="#B4EE3A" stroke-width="0.6" opacity="0.16"/>
        <!-- outer warding ring, rune ticks, slow rotation -->
        <g>
          <circle r="104" fill="none" stroke="#B4EE3A" stroke-width="1.2" opacity="0.42"/>
          <g stroke="#6f93a6" stroke-width="1.3" opacity="0.55">
            <line x1="0" y1="-104" x2="0" y2="-92"/><line x1="74" y1="-74" x2="65" y2="-65"/>
            <line x1="104" y1="0" x2="92" y2="0"/><line x1="74" y1="74" x2="65" y2="65"/>
            <line x1="0" y1="104" x2="0" y2="92"/><line x1="-74" y1="74" x2="-65" y2="65"/>
            <line x1="-104" y1="0" x2="-92" y2="0"/><line x1="-74" y1="-74" x2="-65" y2="-65"/>
          </g>
          <animateTransform attributeName="transform" type="rotate" from="0" to="360" dur="30s" repeatCount="indefinite"/>
        </g>
        <!-- ward frame with a DELIBERATE gap at the foot = the consent gate (closed) -->
        <path d="M-66 -66 L66 -66 L66 50 M-66 -66 L-66 50" fill="none" stroke="#B4EE3A" stroke-width="2.2" opacity="0.7"/>
        <!-- closed gate bar across the foot gap -->
        <line x1="-30" y1="58" x2="30" y2="58" stroke="#B4EE3A" stroke-width="2.4" opacity="0.7"/>
        <line x1="-66" y1="50" x2="-30" y2="58" stroke="#B4EE3A" stroke-width="2.2" opacity="0.7"/>
        <line x1="66" y1="50" x2="30" y2="58" stroke="#B4EE3A" stroke-width="2.2" opacity="0.7"/>
        <!-- horizontal seal-bar clamping the captured fault -->
        <rect x="-58" y="-34" width="116" height="11" rx="3" fill="#B4EE3A" fill-opacity="0.16" stroke="#B4EE3A" stroke-width="1.6" opacity="0.85"/>
        <!-- the captured downward fault-caret held UNDER the seal-bar -->
        <path d="M-22 -18 L0 24 L22 -18" fill="none" stroke="#d2f879" stroke-width="3" stroke-linecap="round" stroke-linejoin="round" opacity="0.92" filter="url(#glow)"/>
        <!-- consent-gate latch dot pulsing (held, not transmitted) -->
        <circle cx="0" cy="58" r="4.5" fill="#d8f7a0" filter="url(#glow)"><animate attributeName="opacity" values="0.5;1;0.5" dur="2.8s" repeatCount="indefinite"/></circle>
        <!-- seal attestation pulse expanding once and fading (the testimony is registered, held) -->
        <circle r="0" fill="none" stroke="#d8f7a0" stroke-width="2" opacity="0">
          <animate attributeName="r" values="0;100" dur="5.4s" repeatCount="indefinite"/>
          <animate attributeName="opacity" values="0.7;0" dur="5.4s" repeatCount="indefinite"/>
        </circle>
        <text x="0" y="92" text-anchor="middle" font-size="11" fill="#6f93a6" opacity="0.7" letter-spacing="2" font-family="monospace">UNDER SEAL</text>
      </g>
      <!-- RIGHT-bottom: changing held-fault counter (resting = first value) -->
      <g transform="translate(456,286)" text-anchor="middle" font-family="monospace">
        <text x="0" y="0" font-size="10" fill="#6f93a6" opacity="0.6" letter-spacing="1">faults sealed</text>
        <g font-size="22" font-weight="bold" fill="#6fe8b0" filter="url(#glow)">
          <text x="0" y="26">0 sent<animate attributeName="opacity" values="1;0;0;1" keyTimes="0;0.33;0.66;1" dur="5.2s" repeatCount="indefinite"/></text>
          <text x="0" y="26" opacity="0">held local<animate attributeName="opacity" values="0;1;0;0" keyTimes="0;0.33;0.66;1" dur="5.2s" repeatCount="indefinite"/></text>
          <text x="0" y="26" opacity="0">opt-in only<animate attributeName="opacity" values="0;0;1;0" keyTimes="0;0.33;0.66;1" dur="5.2s" repeatCount="indefinite"/></text>
        </g>
      </g>
      <text x="160" y="324" text-anchor="middle" font-size="10" fill="#6f93a6" opacity="0.55" letter-spacing="1.5" font-family="monospace">WITNESS · capture · seal · release-on-consent</text>
    
        </g>
      </g>
    </g>
    </g>
  </g>

  <g>
    <circle cx="56" cy="627" r="3.5" fill="#6fb89a" opacity="0.7" style="animation: heartbeat 2.4s ease-in-out infinite; transform-origin: 56px 627px;"/>
    <circle cx="71" cy="627" r="3" fill="#B4EE3A" opacity="0.45"/>
    <circle cx="86" cy="627" r="3" fill="#d2f879" opacity="0.4"/>
    <text x="108" y="627" font-size="9" fill="#3a4a52" letter-spacing="3.2" dominant-baseline="central">ITASHA.CORP</text>
    <text x="640" y="627" font-size="9" fill="#3a4a52" letter-spacing="3" dominant-baseline="central" text-anchor="middle">WITNESS-CORE · present day · present time</text>
    <text x="1208" y="627" font-size="9" fill="#3a4a52" letter-spacing="2.4" dominant-baseline="central" text-anchor="end">CRT-IC v3</text>
    <circle cx="1224" cy="627" r="4" fill="#6fb89a" opacity="0.5"/>
    <circle cx="1224" cy="627" r="2" fill="#6fb89a" opacity="0.95" style="animation: heartbeat 2.4s ease-in-out infinite; transform-origin: 1224px 627px;"/>
  </g>
  <rect x="28" y="22" width="1224" height="592" rx="6" fill="#050608" opacity="0" style="animation: crtBlank 14s ease-in-out infinite;"/>
  <rect x="28" y="316.5" width="1224" height="3" fill="#e9f7ff" opacity="0" style="animation: crtLine 14s ease-in-out infinite; transform-origin: 640px 317.5px;"/>
</svg>
