<svg xmlns="http://www.w3.org/2000/svg" viewBox="0 0 1024 1024" width="1024" height="1024" role="img" aria-label="W1TN3SS app icon — sealed fault-trace sigil">
  <title>W1TN3SS app icon — sealed fault-trace sigil</title>
  <rect x="20" y="20" width="984" height="984" rx="208" fill="#090d03"/>
  <rect x="60" y="60" width="904" height="904" rx="172" fill="none" stroke="#394c12" stroke-width="2.5"/>
  <g stroke="#5a771d" stroke-width="3.2" stroke-linecap="round">
    <line x1="128" y1="150" x2="172" y2="150"/><line x1="150" y1="128" x2="150" y2="172"/>
    <line x1="852" y1="150" x2="896" y2="150"/><line x1="874" y1="128" x2="874" y2="172"/>
    <line x1="128" y1="874" x2="172" y2="874"/><line x1="150" y1="852" x2="150" y2="896"/>
    <line x1="852" y1="874" x2="896" y2="874"/><line x1="874" y1="852" x2="874" y2="896"/>
  </g>
  <path d="M 200 512 a 312 312 0 1 0 624 0 a 312 312 0 1 0 -624 0 Z" fill="none" stroke="#b4ee3a" stroke-width="13.0" stroke-linejoin="round" stroke-linecap="round"/>
  <g fill="none" stroke="#63821f" stroke-width="3.2" stroke-linecap="round">
    <line x1="794.0" y1="512.0" x2="812.0" y2="512.0"/>
    <line x1="777.0" y1="608.4" x2="793.9" y2="614.6"/>
    <line x1="728.0" y1="693.3" x2="741.8" y2="704.8"/>
    <line x1="653.0" y1="756.2" x2="662.0" y2="771.8"/>
    <line x1="561.0" y1="789.7" x2="564.1" y2="807.4"/>
    <line x1="463.0" y1="789.7" x2="459.9" y2="807.4"/>
    <line x1="371.0" y1="756.2" x2="362.0" y2="771.8"/>
    <line x1="296.0" y1="693.3" x2="282.2" y2="704.8"/>
    <line x1="247.0" y1="608.4" x2="230.1" y2="614.6"/>
    <line x1="230.0" y1="512.0" x2="212.0" y2="512.0"/>
    <line x1="247.0" y1="415.6" x2="230.1" y2="409.4"/>
    <line x1="296.0" y1="330.7" x2="282.2" y2="319.2"/>
    <line x1="371.0" y1="267.8" x2="362.0" y2="252.2"/>
    <line x1="463.0" y1="234.3" x2="459.9" y2="216.6"/>
    <line x1="561.0" y1="234.3" x2="564.1" y2="216.6"/>
    <line x1="653.0" y1="267.8" x2="662.0" y2="252.2"/>
    <line x1="728.0" y1="330.7" x2="741.8" y2="319.2"/>
    <line x1="777.0" y1="415.6" x2="793.9" y2="409.4"/>
  </g>
  <g fill="none" stroke="#63821f" stroke-width="2.4" stroke-linecap="round">
    <line x1="372.0" y1="506.0" x2="356.0" y2="522.0"/>
    <line x1="396.0" y1="506.0" x2="380.0" y2="522.0"/>
    <line x1="420.0" y1="506.0" x2="404.0" y2="522.0"/>
    <line x1="444.0" y1="506.0" x2="428.0" y2="522.0"/>
    <line x1="468.0" y1="506.0" x2="452.0" y2="522.0"/>
    <line x1="492.0" y1="506.0" x2="476.0" y2="522.0"/>
    <line x1="516.0" y1="506.0" x2="500.0" y2="522.0"/>
    <line x1="540.0" y1="506.0" x2="524.0" y2="522.0"/>
    <line x1="564.0" y1="506.0" x2="548.0" y2="522.0"/>
    <line x1="588.0" y1="506.0" x2="572.0" y2="522.0"/>
    <line x1="612.0" y1="506.0" x2="596.0" y2="522.0"/>
    <line x1="636.0" y1="506.0" x2="620.0" y2="522.0"/>
  </g>
  <g fill="none" stroke="#63821f" stroke-width="3.2" stroke-linecap="round">
    <line x1="360.0" y1="506.0" x2="664.0" y2="506.0"/>
  </g>
  <g fill="none" stroke="#b4ee3a" stroke-width="6.5" stroke-linecap="round" stroke-linejoin="round">
    <path d="M 512 300 L 484 382 L 540 382 L 500 470 L 548 470 L 512 588"/>
  </g>
  <g fill="none" stroke="#63821f" stroke-width="3.2" stroke-linecap="round">
    <line x1="372.0" y1="560.0" x2="398.0" y2="546.0"/>
    <line x1="652.0" y1="560.0" x2="626.0" y2="546.0"/>
    <line x1="396.0" y1="628.0" x2="422.0" y2="614.0"/>
    <line x1="628.0" y1="628.0" x2="602.0" y2="614.0"/>
  </g>
  <g fill="none" stroke="#b4ee3a" stroke-width="6.5" stroke-linecap="round">
    <path d="M 470 580 Q 512 624 554 580"/>
  </g>
  <g fill="none" stroke="#63821f" stroke-width="3.2">
    <circle cx="512.0" cy="412.0" r="30.0"/>
  </g>
  <g fill="none" stroke="#63821f" stroke-width="3.2" stroke-linecap="round">
    <line x1="512.0" y1="370.0" x2="512.0" y2="386.0"/>
    <line x1="512.0" y1="438.0" x2="512.0" y2="454.0"/>
    <line x1="470.0" y1="412.0" x2="486.0" y2="412.0"/>
    <line x1="538.0" y1="412.0" x2="554.0" y2="412.0"/>
  </g>
  <g fill="#b4ee3a">
    <circle cx="512.0" cy="596.0" r="16.0"/>
  </g>
  <g fill="#090d03">
    <circle cx="512.0" cy="596.0" r="5.4"/>
  </g>
  <style>@media (prefers-reduced-motion: reduce){*{animation:none !important}}</style>
</svg>
